<?xml version="1.0" encoding="UTF-8"?>
<svg id="Layer_1" xmlns="http://www.w3.org/2000/svg" version="1.1" viewBox="0 0 465 630">
  <!-- Generator: Adobe Illustrator 29.3.1, SVG Export Plug-In . SVG Version: 2.1.0 Build 151)  -->
  <defs>
    <style>
      .st0 {
        fill-rule: evenodd;
      }
    </style>
  </defs>
  <path class="st0" d="M160.7,159.4h140.4c7.4,0,13.4-6,13.4-13.4s-6-13.4-13.4-13.4h-140.4c-7.4,0-13.4,6-13.4,13.4s6,13.4,13.4,13.4Z"/>
  <path class="st0" d="M184.8,121.8h92.6c7.4,0,13.4-6,13.4-13.4s-6-13.4-13.4-13.4h-92.6c-7.4,0-13.4,6-13.4,13.4s6,13.4,13.4,13.4Z"/>
  <path class="st0" d="M208.4,84.3h44.4c7.4,0,13.4-6,13.4-13.4s-6-13.4-13.4-13.4h-44.4c-7.4,0-13.4,6-13.4,13.4s6,13.4,13.4,13.4Z"/>
  <rect x="220.7" y="20" width="20.1" height="26.7" rx="10" ry="10"/>
  <path class="st0" d="M136.8,196.9h187.6c7.4,0,13.4-6,13.4-13.4s-6-13.4-13.4-13.4h-187.6c-7.4,0-13.4,6-13.4,13.4s6,13.4,13.4,13.4Z"/>
  <path class="st0" d="M112.4,234.5h235.6c7.4,0,13.4-6,13.4-13.4s-6-13.4-13.4-13.4H112.4c-7.4,0-13.4,6-13.4,13.4s6,13.4,13.4,13.4Z"/>
  <path class="st0" d="M88.8,272h283.6c7.4,0,13.4-6,13.4-13.4s-6-13.4-13.4-13.4H88.8c-7.4,0-13.4,6-13.4,13.4h0c0,7.4,6,13.4,13.4,13.4Z"/>
  <path class="st0" d="M64.4,309.6h331.6c7.4,0,13.4-6,13.4-13.4s-6-13.4-13.4-13.4H64.4c-7.4,0-13.4,6-13.4,13.4h0c0,7.4,6,13.4,13.4,13.4Z"/>
  <path class="st0" d="M421.7,320.4H41.1c-7.4,0-13.4,6-13.4,13.4h0c0,7.4,6,13.4,13.4,13.4h380.6c7.4,0,13.4-6,13.4-13.4s-6-13.4-13.4-13.4Z"/>
  <path d="M107.3,357.9h243.6c7.4,0,13.4,6,13.4,13.4h0c0,7.4-6,13.4-13.4,13.4H107.3c-7.4,0-13.4-6-13.4-13.4h0c0-7.4,6-13.4,13.4-13.4Z"/>
  <path class="st0" d="M174.5,395.5c-7.4,0-13.4,6-13.4,13.4s6,13.4,13.4,13.4h110.6c7.4,0,13.4-6,13.4-13.4h0c0-7.4-6-13.4-13.4-13.4h-110.6,0Z"/>
  <path d="M133.8,470.6h194.6c7.4,0,13.4,6,13.4,13.4h0c0,7.4-6,13.4-13.4,13.4h-194.6c-7.4,0-13.4-6-13.4-13.4h0c0-7.4,6-13.4,13.4-13.4Z"/>
  <path class="st0" d="M298.7,508.1h-137.6c-7.4,0-13.4,6-13.4,13.4s6,13.4,13.4,13.4h137.6c7.4,0,13.4-6,13.4-13.4h0c0-7.4-6-13.4-13.4-13.4h0Z"/>
  <path class="st0" d="M271.2,545.7h-80.6c-7.4,0-13.4,6-13.4,13.4s6,13.4,13.4,13.4h80.6c7.4,0,13.4-6,13.4-13.4h0c0-7.4-6-13.4-13.4-13.4Z"/>
  <path class="st0" d="M241.2,583.2h-21.6c-7.4,0-13.4,6-13.4,13.4s6,13.4,13.4,13.4h21.6c7.4,0,13.4-6,13.4-13.4h0c0-7.4-6-13.4-13.4-13.4Z"/>
  <path class="st0" d="M156.9,446.4c0-7.4-6-13.4-13.4-13.4h-37.6c-7.4,0-13.4,6-13.4,13.4s6,13.4,13.4,13.4h37.6c7.4,0,13.4-6,13.4-13.4Z"/>
  <path class="st0" d="M355.1,433h-37.6c-7.4,0-13.4,6-13.4,13.4s6,13.4,13.4,13.4h37.6c7.4,0,13.4-6,13.4-13.4s-6-13.4-13.4-13.4Z"/>
  <path class="st0" d="M383.1,395.5h-2.6c-7.4,0-13.4,6-13.4,13.4s6,13.4,13.4,13.4h2.6c7.4,0,13.4-6,13.4-13.4h0c0-7.4-6-13.4-13.4-13.4Z"/>
  <path class="st0" d="M93.9,408.8c0-7.4-6-13.4-13.4-13.4h-2.6c-7.4,0-13.4,6-13.4,13.4s6,13.4,13.4,13.4h2.6c7.4,0,13.4-6,13.4-13.4h0Z"/>
</svg>